<svg width="24" height="25" viewBox="0 0 24 25" fill="none" xmlns="http://www.w3.org/2000/svg">
<path d="M6.48002 9.32659L2.67189 12.5L6.48002 15.6735C6.55787 15.7358 6.62252 15.813 6.67017 15.9006C6.71781 15.9882 6.74751 16.0845 6.75752 16.1837C6.76753 16.2829 6.75765 16.3831 6.72846 16.4785C6.69927 16.5739 6.65135 16.6624 6.58751 16.7391C6.52368 16.8157 6.4452 16.8788 6.35667 16.9247C6.26815 16.9706 6.17135 16.9984 6.07195 17.0065C5.97255 17.0146 5.87254 17.0027 5.77777 16.9717C5.683 16.9406 5.59537 16.891 5.52002 16.8256L1.02002 13.0757C0.935581 13.0053 0.867647 12.9172 0.821028 12.8176C0.774409 12.7181 0.750244 12.6095 0.750244 12.4996C0.750244 12.3896 0.774409 12.281 0.821028 12.1815C0.867647 12.0819 0.935581 11.9938 1.02002 11.9235L5.52002 8.17346C5.67293 8.04616 5.87015 7.98481 6.0683 8.00292C6.26644 8.02103 6.44928 8.11711 6.57658 8.27002C6.70389 8.42294 6.76523 8.62016 6.74712 8.8183C6.72901 9.01645 6.63293 9.19928 6.48002 9.32659ZM22.98 11.9235L18.48 8.17346C18.4043 8.11043 18.3169 8.06292 18.2228 8.03366C18.1288 8.0044 18.0299 7.99396 17.9317 8.00292C17.8336 8.01189 17.7382 8.04009 17.651 8.08592C17.5638 8.13175 17.4865 8.19431 17.4235 8.27002C17.2962 8.42294 17.2348 8.62016 17.2529 8.8183C17.271 9.01645 17.3671 9.19928 17.52 9.32659L21.3281 12.5L17.52 15.6735C17.4422 15.7358 17.3775 15.813 17.3299 15.9006C17.2822 15.9882 17.2525 16.0845 17.2425 16.1837C17.2325 16.2829 17.2424 16.3831 17.2716 16.4785C17.3008 16.5739 17.3487 16.6624 17.4125 16.7391C17.4764 16.8157 17.5548 16.8788 17.6434 16.9247C17.7319 16.9706 17.8287 16.9984 17.9281 17.0065C18.0275 17.0146 18.1275 17.0027 18.2223 16.9717C18.317 16.9406 18.4047 16.891 18.48 16.8256L22.98 13.0757C23.0645 13.0053 23.1324 12.9172 23.179 12.8176C23.2256 12.7181 23.2498 12.6095 23.2498 12.4996C23.2498 12.3896 23.2256 12.281 23.179 12.1815C23.1324 12.0819 23.0645 11.9938 22.98 11.9235ZM15.256 3.54502C15.1634 3.51141 15.0651 3.49636 14.9667 3.50074C14.8683 3.50512 14.7717 3.52883 14.6825 3.57053C14.5932 3.61223 14.5131 3.6711 14.4466 3.74377C14.3801 3.81645 14.3286 3.9015 14.295 3.99409L8.29502 20.4941C8.26126 20.5867 8.2461 20.6851 8.25041 20.7836C8.25471 20.8821 8.2784 20.9788 8.32011 21.0681C8.36181 21.1575 8.42073 21.2377 8.49348 21.3043C8.56623 21.3708 8.65139 21.4224 8.74408 21.456C8.82625 21.4852 8.91282 21.5001 9.00002 21.5C9.15404 21.5 9.30433 21.4526 9.43046 21.3642C9.5566 21.2758 9.65246 21.1507 9.70502 21.006L15.705 4.50596C15.7386 4.41338 15.7537 4.31508 15.7493 4.21669C15.7449 4.11829 15.7212 4.02172 15.6795 3.93249C15.6378 3.84325 15.5789 3.76311 15.5063 3.69663C15.4336 3.63015 15.3485 3.57863 15.256 3.54502Z" fill="#F0FEF8"/>
</svg>
