<svg width="24" height="25" viewBox="0 0 24 25" fill="none" xmlns="http://www.w3.org/2000/svg">
<path d="M15.75 2C13.9603 2.00174 12.2444 2.71345 10.9789 3.97895C9.71343 5.24444 9.00171 6.96032 8.99998 8.75C9.00066 9.04534 9.02039 9.34033 9.05904 9.63312L2.54248 18.5206C2.32918 18.8091 2.22686 19.1647 2.25423 19.5224C2.2816 19.8802 2.43684 20.2161 2.69154 20.4688L4.03123 21.8084C4.28389 22.0631 4.61981 22.2184 4.97753 22.2457C5.33525 22.2731 5.69087 22.1708 5.97935 21.9575L14.8678 15.4391C15.1602 15.4783 15.4549 15.4987 15.75 15.5C17.5402 15.5 19.2571 14.7888 20.5229 13.523C21.7888 12.2571 22.5 10.5402 22.5 8.75C22.5 6.95979 21.7888 5.2429 20.5229 3.97703C19.2571 2.71116 17.5402 2 15.75 2ZM21 8.75C21.0013 9.88326 20.6341 10.9862 19.9537 11.8925L12.6084 4.54625C13.3887 3.96349 14.3157 3.60925 15.2857 3.52313C16.2558 3.43701 17.2307 3.62241 18.1014 4.05861C18.9721 4.4948 19.7044 5.16458 20.2163 5.99308C20.7282 6.82158 20.9995 7.77613 21 8.75ZM5.09248 20.75L3.74998 19.4075L9.5756 11.4688C10.2582 13.0099 11.4901 14.2417 13.0312 14.9244L5.09248 20.75ZM10.5 8.75C10.4985 7.61701 10.8657 6.5143 11.5462 5.60844L18.8906 12.9528C18.1104 13.5353 17.1836 13.8893 16.2138 13.9753C15.2439 14.0613 14.2693 13.8759 13.3987 13.4399C12.5282 13.0038 11.7961 12.3343 11.2842 11.5061C10.7723 10.6779 10.5008 9.72364 10.5 8.75ZM10.2797 14.2194C10.4202 14.36 10.4992 14.5507 10.4992 14.7495C10.4992 14.9484 10.4202 15.139 10.2797 15.2797L9.52966 16.0297C9.46071 16.1023 9.37793 16.1603 9.28619 16.2004C9.19446 16.2405 9.09563 16.2618 8.99553 16.263C8.89543 16.2643 8.79609 16.2456 8.70336 16.2078C8.61063 16.1701 8.52639 16.1142 8.4556 16.0434C8.38481 15.9727 8.32891 15.8884 8.2912 15.7957C8.25348 15.7029 8.23471 15.6036 8.23599 15.5035C8.23727 15.4034 8.25858 15.3046 8.29866 15.2128C8.33874 15.1211 8.39677 15.0383 8.46935 14.9694L9.21935 14.2194C9.28896 14.1494 9.37169 14.0939 9.46279 14.056C9.55389 14.0181 9.65158 13.9986 9.75025 13.9985C9.84892 13.9984 9.94664 14.0178 10.0378 14.0555C10.129 14.0933 10.2118 14.1486 10.2815 14.2184L10.2797 14.2194Z" fill="#F0FEF8"/>
</svg>
