<svg width="24" height="25" viewBox="0 0 24 25" fill="none" xmlns="http://www.w3.org/2000/svg">
<path d="M23.25 9.18873C23.2506 8.99167 23.212 8.79646 23.1366 8.61443C23.0611 8.43241 22.9502 8.2672 22.8103 8.12842L16.3715 1.68873C16.2322 1.5494 16.0669 1.43888 15.8849 1.36348C15.7028 1.28808 15.5078 1.24927 15.3107 1.24927C15.1137 1.24927 14.9187 1.28808 14.7366 1.36348C14.5546 1.43888 14.3893 1.5494 14.25 1.68873L11.5847 4.35404L6.14715 6.39498C5.90003 6.48714 5.68146 6.6426 5.51331 6.84579C5.34516 7.04899 5.23333 7.29279 5.18903 7.55279L3.01028 20.6262C2.9923 20.7337 2.99795 20.8438 3.02685 20.9488C3.05574 21.0539 3.10717 21.1514 3.17758 21.2346C3.24798 21.3177 3.33566 21.3846 3.43451 21.4304C3.53336 21.4762 3.64101 21.5 3.74997 21.5C3.79142 21.4998 3.8328 21.4964 3.87372 21.4897L16.9462 19.3109C17.2059 19.2676 17.4496 19.1567 17.6528 18.9893C17.8561 18.8219 18.0117 18.604 18.104 18.3575L20.145 12.92L22.8103 10.25C22.9502 10.1111 23.0612 9.94569 23.1367 9.7635C23.2122 9.58131 23.2507 9.38593 23.25 9.18873ZM16.6997 17.8315L5.93622 19.625L10.3772 15.184C10.9318 15.4838 11.5759 15.5739 12.1915 15.4379C12.8072 15.3019 13.3533 14.9488 13.73 14.4433C14.1068 13.9377 14.289 13.3135 14.2433 12.6846C14.1977 12.0558 13.9272 11.4644 13.4814 11.0186C13.0356 10.5727 12.4442 10.3023 11.8153 10.2566C11.1865 10.211 10.5622 10.3932 10.0567 10.7699C9.55111 11.1467 9.19805 11.6928 9.06203 12.3084C8.92602 12.9241 9.01613 13.5681 9.3159 14.1228L4.87497 18.5656L6.6684 7.79935L11.8125 5.87092L18.6281 12.6875L16.6997 17.8315ZM10.5 12.875C10.5 12.6525 10.5659 12.435 10.6896 12.25C10.8132 12.065 10.9889 11.9208 11.1944 11.8356C11.4 11.7505 11.6262 11.7282 11.8444 11.7716C12.0627 11.815 12.2631 11.9221 12.4205 12.0795C12.5778 12.2368 12.6849 12.4373 12.7284 12.6555C12.7718 12.8737 12.7495 13.0999 12.6643 13.3055C12.5792 13.5111 12.435 13.6868 12.25 13.8104C12.065 13.934 11.8475 14 11.625 14C11.3266 14 11.0405 13.8815 10.8295 13.6705C10.6185 13.4595 10.5 13.1733 10.5 12.875ZM19.5 11.4387L13.0603 4.99998L15.3103 2.74998L21.75 9.18873L19.5 11.4387Z" fill="#F0FEF8"/>
</svg>
